<svg width="80" height="80" viewBox="0 0 80 80" fill="none" xmlns="http://www.w3.org/2000/svg">
<rect width="80" height="80" rx="40" fill="#F6F6F6"/>
<path d="M20 42.5749C20 37.7517 23.7558 33.7925 28.4623 33.5702L28.88 33.5604H38.46V45.7697C38.46 46.6447 39.14 47.3366 40 47.3366C40.77 47.3366 41.4224 46.7552 41.5257 45.9843L41.54 45.7697V33.5604H51.1C55.86 33.5604 59.7707 37.3817 59.9903 42.189L60 42.6156V52.5255C60 57.3685 56.2442 61.3282 51.5377 61.5506L51.12 61.5604H28.9C24.1206 61.5604 20.2282 57.7199 20.0097 52.9302L20 52.5052V42.5749ZM33.1004 28.48C32.5368 27.9345 32.4855 27.075 32.9317 26.4725L33.0804 26.3L38.9004 20.46C39.2004 20.16 39.5804 20 40.0004 20C40.3204 20 40.6404 20.1024 40.899 20.297L41.0804 20.46L46.9004 26.3C47.2004 26.6 47.3604 27 47.3604 27.38C47.3604 27.78 47.2004 28.18 46.9004 28.48C46.3549 29.0255 45.4954 29.075 44.8929 28.6288L44.7204 28.48L41.5404 25.28V33.56H38.4604V25.28L35.2804 28.48C34.6804 29.08 33.7004 29.08 33.1004 28.48Z" fill="#1F2C37"/>
</svg>
