<svg width="48" height="48" viewBox="0 0 48 48" fill="none" xmlns="http://www.w3.org/2000/svg">
<rect width="48" height="48" rx="24" fill="#ECF1F6"/>
<g clip-path="url(#clip0_118_540)">
<g clip-path="url(#clip1_118_540)">
<path d="M35.8073 22.141C35.914 22.141 36.0005 22.2275 36.0005 22.3342V24.3623C36.0005 25.1214 35.93 25.8636 35.7947 26.5836C34.7486 32.1762 29.8216 36.4027 23.9159 36.362C17.2892 36.3163 11.9858 30.962 12.0005 24.3353C12.0151 17.7204 17.3822 12.3623 24.0005 12.3623C27.243 12.3623 30.1849 13.6486 32.3449 15.7381C32.4229 15.8136 32.4249 15.9379 32.3482 16.0146L29.4789 18.8838C29.405 18.9577 29.2857 18.9596 29.21 18.8876C27.8543 17.5972 26.0201 16.8049 24.0005 16.8049C19.83 16.8049 16.4716 20.1394 16.4433 24.3099C16.4148 28.5076 19.8093 31.9196 24.0005 31.9196C27.401 31.9196 30.2772 29.6732 31.2256 26.5836H24.1936C24.087 26.5836 24.0005 26.4971 24.0005 26.3904V22.3341C24.0005 22.2274 24.087 22.1409 24.1936 22.1409H35.8073V22.141Z" fill="#2196F3"/>
<path d="M35.8064 22.141H34.3577C34.4644 22.141 34.5509 22.2275 34.5509 22.3342V24.3623C34.5509 25.1214 34.4804 25.8636 34.3451 26.5836C33.3471 31.919 28.8169 36.011 23.2744 36.3406C23.4865 36.3532 23.6999 36.3605 23.9149 36.362C29.8207 36.4027 34.7477 32.1762 35.7938 26.5836C35.929 25.8636 35.9995 25.1214 35.9995 24.3623V22.3341C35.9995 22.2275 35.913 22.141 35.8064 22.141Z" fill="#1E88E5"/>
<path d="M17.1361 21.1974L13.4917 18.5641C15.5363 14.8661 19.4762 12.3623 24.0005 12.3623C27.243 12.3623 30.185 13.6486 32.3449 15.7381C32.4229 15.8136 32.4249 15.9379 32.3482 16.0146L29.4789 18.8838C29.4052 18.9576 29.2859 18.9599 29.2103 18.888C27.8547 17.5973 26.0203 16.805 24.0005 16.805C20.9568 16.805 18.3332 18.6042 17.1361 21.1974Z" fill="#F44336"/>
<path d="M16.0835 20.4372L17.1356 21.1974C18.2283 18.8305 20.5096 17.1258 23.2138 16.8462C23.2341 16.844 23.2537 16.8413 23.2744 16.8394C23.0364 16.8168 22.7952 16.805 22.5513 16.805C19.8018 16.805 17.4055 18.2545 16.0835 20.4372Z" fill="#E53935"/>
<path d="M30.8956 15.7381C30.9736 15.8136 30.9756 15.9379 30.8989 16.0146L28.57 18.3435C28.7931 18.5132 29.0067 18.6947 29.2093 18.8876C29.285 18.9597 29.4044 18.9578 29.4783 18.8839L32.3475 16.0146C32.4243 15.9379 32.4222 15.8136 32.3442 15.7381C30.1843 13.6486 27.2423 12.3623 23.9998 12.3623C23.7565 12.3623 23.5151 12.3704 23.2754 12.3847C26.2304 12.5607 28.8976 13.8054 30.8956 15.7381Z" fill="#E53935"/>
<path d="M32.8022 32.5175C30.6108 34.8822 27.4778 36.3623 23.9995 36.3623C19.3014 36.3623 15.2339 33.6625 13.2642 29.7292L16.9849 27.1795C18.1014 29.9576 20.8215 31.9196 23.9995 31.9196C25.9938 31.9196 27.8076 31.147 29.1578 29.8847L32.8022 32.5175Z" fill="#4CAF50"/>
<path d="M16.9853 27.1795L15.8882 27.9314C17.1625 30.3053 19.6684 31.9196 22.5512 31.9196C22.795 31.9196 23.036 31.9077 23.2739 31.8851C20.4122 31.6123 18.0157 29.7436 16.9853 27.1795Z" fill="#43A047"/>
<path d="M23.9999 36.3623C27.4782 36.3623 30.6112 34.8823 32.8026 32.5175L31.91 31.8727C29.8524 34.4334 26.7656 36.1322 23.2773 36.3405C23.5164 36.3547 23.7573 36.3623 23.9999 36.3623Z" fill="#43A047"/>
<path d="M16.4427 24.3623C16.4427 25.358 16.6353 26.3089 16.9854 27.1795L13.2647 29.7292C12.4554 28.1144 12 26.2915 12 24.3623C12 22.2593 12.5408 20.2828 13.4912 18.5641L17.1356 21.1974C16.6909 22.1598 16.4427 23.2323 16.4427 24.3623Z" fill="#FFC107"/>
<path d="M15.8885 27.9314L16.9856 27.1796C16.6355 26.3089 16.4429 25.358 16.4429 24.3623C16.4429 23.2323 16.6911 22.1598 17.1358 21.1974L16.0837 20.4372C15.4005 21.5653 15.004 22.889 14.9943 24.3099C14.9854 25.6203 15.3101 26.8541 15.8885 27.9314Z" fill="#FFB300"/>
</g>
</g>
<defs>
<clipPath id="clip0_118_540">
<rect width="24" height="24" fill="white" transform="translate(12 12)"/>
</clipPath>
<clipPath id="clip1_118_540">
<rect width="24" height="24" fill="white" transform="translate(12 12.3623)"/>
</clipPath>
</defs>
</svg>
