<svg width="48" height="48" viewBox="0 0 48 48" fill="none" xmlns="http://www.w3.org/2000/svg">
<rect width="48" height="48" rx="24" fill="#ECF1F6"/>
<g clip-path="url(#clip0_118_538)">
<path d="M30.5764 25.453C29.9162 22.1305 33.0698 20.1819 33.0698 20.1819C33.0698 20.1819 31.8411 18.4042 29.7761 17.9469C27.7121 17.4886 26.6792 18.0612 25.6482 18.4907C24.6162 18.9212 24.1012 18.9212 24.1012 18.9212C22.612 18.9212 21.5233 17.3444 18.6859 18.0623C16.7311 18.5556 14.6733 20.8122 14.3015 23.5054C13.9297 26.1997 14.732 29.6376 16.279 32.302C17.8259 34.9685 19.4017 35.9706 20.5202 35.9994C21.6387 36.0272 22.7551 35.1982 24.1012 34.9963C25.4484 34.7965 26.2775 35.4845 27.5988 35.8563C28.9151 36.2271 29.3765 35.8831 30.8925 34.5936C32.4127 33.3041 33.7887 29.6057 33.7887 29.6057C33.7887 29.6057 31.2365 28.7776 30.5764 25.453Z" fill="#1F2C37"/>
<path d="M27.6533 15.7973C29.1157 14.3071 28.6204 12 28.6204 12C28.6204 12 26.5667 12.3605 25.1907 13.7921C23.8158 15.2247 24.0434 17.4874 24.0434 17.4874C24.0434 17.4874 26.1908 17.2866 27.6533 15.7973Z" fill="#1F2C37"/>
</g>
<defs>
<clipPath id="clip0_118_538">
<rect width="24" height="24" fill="white" transform="translate(12 12)"/>
</clipPath>
</defs>
</svg>
