<svg width="24" height="24" viewBox="0 0 24 24" fill="none" xmlns="http://www.w3.org/2000/svg">
<g clip-path="url(#clip0_6_1122)">
<rect width="24" height="24" fill="#FDFDFD"/>
<path d="M23.4619 9.36064L23.4617 9.3601C23.3662 9.0646 23.1045 8.85512 22.7945 8.82718L22.7941 8.82715L15.8671 8.19816L15.5698 8.17117L15.4525 7.89665L12.7138 1.48643C12.7137 1.48625 12.7136 1.48608 12.7135 1.4859C12.59 1.19909 12.3103 1.01497 12.0001 1.01497C11.6901 1.01497 11.4104 1.19895 11.2868 1.48677C11.2868 1.48689 11.2867 1.48702 11.2866 1.48714L8.54776 7.89668L8.43046 8.17117L8.13318 8.19816L1.20584 8.82707C1.20568 8.82709 1.20551 8.8271 1.20535 8.82712C0.895605 8.85595 0.634583 9.0648 0.538297 9.36091C0.441917 9.65731 0.531162 9.98093 0.764531 10.1846L0.765479 10.1854L6.00151 14.7774L6.22533 14.9737L6.15943 15.264L4.61556 22.0648C4.61554 22.0649 4.61552 22.0649 4.6155 22.065C4.54653 22.3708 4.66511 22.6843 4.91672 22.8662L23.4619 9.36064ZM23.4619 9.36064C23.5581 9.65713 23.4688 9.98058 23.2341 10.1859L23.2337 10.1863L17.9977 14.7774L17.7738 14.9737L17.8397 15.264L19.3836 22.065C19.4526 22.3694 19.3345 22.6836 19.0818 22.8667L19.0818 22.8667C18.8297 23.0495 18.4957 23.0635 18.2309 22.9042L18.2298 22.9035L12.2567 19.3323L12.0002 19.179L11.7436 19.3323L5.76836 22.9035L5.76814 22.9036M23.4619 9.36064L5.76814 22.9036M5.76814 22.9036C5.64357 22.9782 5.50723 23.0147 5.37098 23.0147C5.2125 23.0147 5.05416 22.9655 4.91681 22.8663L5.76814 22.9036Z" stroke="#1F2C37"/>
</g>
<defs>
<clipPath id="clip0_6_1122">
<rect width="24" height="24" fill="white"/>
</clipPath>
</defs>
</svg>
